<svg version="1.1" id="Layer_1"
	xmlns="http://www.w3.org/2000/svg"
	xmlns:xlink="http://www.w3.org/1999/xlink" x="0px" y="0px" width="100%" viewBox="0 0 192 192" enable-background="new 0 0 192 192" xml:space="preserve">
	<path fill="#252323" opacity="1.000000" stroke="none" d="M86.000000,193.000000 C57.333336,193.000000 29.166670,193.000000 1.000004,193.000000 C1.000003,129.000000 1.000003,65.000008 1.000001,1.000012 C64.999992,1.000008 128.999985,1.000008 192.999969,1.000004 C192.999985,64.999985 192.999985,128.999969 193.000000,192.999969 C157.500000,193.000000 122.000000,193.000000 86.000000,193.000000 M137.924561,83.500023 C137.924561,72.095703 137.924561,60.691383 137.924561,49.464207 C131.099991,49.464207 125.209404,49.464207 118.926857,49.464207 C118.926857,68.826103 118.926857,87.722137 118.926857,108.010063 C117.220604,105.608498 116.260284,104.357094 115.404892,103.037666 C104.535965,86.272652 93.705605,69.482536 82.782448,52.752975 C81.849701,51.324402 80.379227,49.299240 79.066002,49.226704 C72.501465,48.864117 65.906036,49.060787 59.340645,49.060787 C59.340645,78.724144 59.340645,107.619675 59.340645,136.619080 C65.574127,136.619080 71.454163,136.619080 78.029526,136.619080 C78.029526,116.803635 78.029526,97.362144 78.029526,76.484108 C79.871361,79.144180 80.836136,80.468407 81.729935,81.838913 C92.917175,98.992905 104.060989,116.175461 115.331215,133.274704 C116.324661,134.781967 118.061531,136.705658 119.565765,136.809875 C125.474358,137.219269 131.428070,136.977463 137.924561,136.977463 C137.924561,119.055717 137.924561,101.777870 137.924561,83.500023 z"/>
	<path fill="#7EBF3C" opacity="1.000000" stroke="none" d="M137.924561,84.000031 C137.924561,101.777870 137.924561,119.055717 137.924561,136.977463 C131.428070,136.977463 125.474358,137.219269 119.565765,136.809875 C118.061531,136.705658 116.324661,134.781967 115.331215,133.274704 C104.060989,116.175461 92.917175,98.992905 81.729935,81.838913 C80.836136,80.468407 79.871361,79.144180 78.029526,76.484108 C78.029526,97.362144 78.029526,116.803635 78.029526,136.619080 C71.454163,136.619080 65.574127,136.619080 59.340645,136.619080 C59.340645,107.619675 59.340645,78.724144 59.340645,49.060787 C65.906036,49.060787 72.501465,48.864117 79.066002,49.226704 C80.379227,49.299240 81.849701,51.324402 82.782448,52.752975 C93.705605,69.482536 104.535965,86.272652 115.404892,103.037666 C116.260284,104.357094 117.220604,105.608498 118.926857,108.010063 C118.926857,87.722137 118.926857,68.826103 118.926857,49.464207 C125.209404,49.464207 131.099991,49.464207 137.924561,49.464207 C137.924561,60.691383 137.924561,72.095703 137.924561,84.000031 z"/>
</svg>